<svg xmlns="http://www.w3.org/2000/svg" width="10" height="10" viewBox="0 0 10 10">
    <path fill="#666" fill-rule="nonzero" d="M1.111 0H8.89C9.503 0 10 .497 10 1.111V8.89C10 9.503 9.503 10 8.889 10H1.11A1.111 1.111 0 0 1 0 8.889V1.11C0 .497.497 0 1.111 0zm7.194 3.497c.259-.226.56-.496.695-.795-.22.118-.485.192-.775.231.269-.203.49-.468.603-.829-.28.158-.566.293-.921.361-.835-1.054-2.832-.197-2.477 1.381-1.405-.09-2.262-.755-2.972-1.573-.404.688-.054 1.731.425 2.019a1.529 1.529 0 0 1-.614-.186c.022.868.48 1.285 1.12 1.51-.194.04-.409.051-.614.018.2.603.614.98 1.325 1.06-.485.428-1.378.727-2.1.608.62.412 1.325.739 2.305.694 2.374-.113 3.963-1.895 4-4.5z"/>
</svg>
